<svg width="60" height="60" viewBox="0 0 60 60" fill="none" xmlns="http://www.w3.org/2000/svg">
  <g fill="#c7a253">
    <circle cx="30" cy="30" r="6.5" fill="#0a1f15" stroke="#c7a253" stroke-width="1.5"/>
    <g>
      <ellipse cx="30" cy="11" rx="3.2" ry="9" />
      <ellipse cx="30" cy="49" rx="3.2" ry="9" />
      <ellipse cx="11" cy="30" rx="9" ry="3.2" />
      <ellipse cx="49" cy="30" rx="9" ry="3.2" />
      <ellipse cx="16.6" cy="16.6" rx="3.2" ry="9" transform="rotate(45 16.6 16.6)" />
      <ellipse cx="43.4" cy="16.6" rx="3.2" ry="9" transform="rotate(-45 43.4 16.6)" />
      <ellipse cx="16.6" cy="43.4" rx="3.2" ry="9" transform="rotate(-45 16.6 43.4)" />
      <ellipse cx="43.4" cy="43.4" rx="3.2" ry="9" transform="rotate(45 43.4 43.4)" />
      <ellipse cx="23" cy="13" rx="2.6" ry="7.5" transform="rotate(22 23 13)" />
      <ellipse cx="37" cy="13" rx="2.6" ry="7.5" transform="rotate(-22 37 13)" />
      <ellipse cx="23" cy="47" rx="2.6" ry="7.5" transform="rotate(-22 23 47)" />
      <ellipse cx="37" cy="47" rx="2.6" ry="7.5" transform="rotate(22 37 47)" />
      <ellipse cx="13" cy="23" rx="7.5" ry="2.6" transform="rotate(22 13 23)" />
      <ellipse cx="13" cy="37" rx="7.5" ry="2.6" transform="rotate(-22 13 37)" />
      <ellipse cx="47" cy="23" rx="7.5" ry="2.6" transform="rotate(-22 47 23)" />
      <ellipse cx="47" cy="37" rx="7.5" ry="2.6" transform="rotate(22 47 37)" />
    </g>
  </g>
</svg>
