<svg width="360" height="540" viewBox="0 0 360 540" fill="none" xmlns="http://www.w3.org/2000/svg">
  <g fill="#c7a253">
    <circle cx="338" cy="10" r="2.2"/><circle cx="330" cy="18" r="1.4"/><circle cx="324" cy="26" r="2"/>
    <circle cx="318" cy="34" r="1.2"/><circle cx="312" cy="40" r="1.8"/><circle cx="305" cy="48" r="1.3"/>
    <circle cx="300" cy="56" r="2.1"/><circle cx="294" cy="64" r="1.3"/><circle cx="289" cy="72" r="1.7"/>
    <circle cx="285" cy="80" r="1.2"/><circle cx="281" cy="88" r="2"/><circle cx="278" cy="96" r="1.3"/>
    <circle cx="275" cy="104" r="1.8"/><circle cx="273" cy="112" r="1.2"/><circle cx="271" cy="120" r="2.2"/>
    <circle cx="270" cy="128" r="1.4"/><circle cx="269" cy="136" r="1.7"/><circle cx="268" cy="144" r="1.2"/>
    <circle cx="266" cy="152" r="2"/><circle cx="264" cy="160" r="1.3"/><circle cx="261" cy="168" r="1.8"/>
    <circle cx="258" cy="176" r="1.2"/><circle cx="254" cy="184" r="2.1"/><circle cx="250" cy="192" r="1.3"/>
    <circle cx="245" cy="200" r="1.8"/><circle cx="240" cy="208" r="1.4"/><circle cx="235" cy="216" r="2"/>
    <circle cx="229" cy="224" r="1.2"/><circle cx="223" cy="232" r="1.8"/><circle cx="217" cy="240" r="1.3"/>
    <circle cx="210" cy="248" r="2.1"/><circle cx="203" cy="256" r="1.4"/><circle cx="196" cy="264" r="1.7"/>
    <circle cx="189" cy="272" r="1.2"/><circle cx="182" cy="280" r="2"/><circle cx="175" cy="288" r="1.3"/>
    <circle cx="167" cy="296" r="1.8"/><circle cx="160" cy="304" r="1.3"/><circle cx="152" cy="312" r="2.1"/>
    <circle cx="145" cy="320" r="1.4"/><circle cx="137" cy="328" r="1.7"/><circle cx="130" cy="336" r="1.2"/>
    <circle cx="122" cy="344" r="2"/><circle cx="115" cy="352" r="1.3"/><circle cx="108" cy="360" r="1.8"/>
    <circle cx="100" cy="368" r="1.3"/><circle cx="93" cy="377" r="2.1"/><circle cx="86" cy="386" r="1.4"/>
    <circle cx="79" cy="395" r="1.7"/><circle cx="72" cy="404" r="1.2"/><circle cx="66" cy="413" r="2"/>
    <circle cx="59" cy="422" r="1.3"/><circle cx="53" cy="431" r="1.8"/><circle cx="47" cy="440" r="1.3"/>
    <circle cx="41" cy="450" r="2.1"/><circle cx="36" cy="460" r="1.4"/><circle cx="31" cy="470" r="1.7"/>
    <circle cx="26" cy="480" r="1.2"/><circle cx="22" cy="490" r="2"/><circle cx="18" cy="500" r="1.3"/>
    <circle cx="14" cy="510" r="1.8"/><circle cx="11" cy="520" r="1.2"/><circle cx="8" cy="530" r="1.9"/>
    <circle cx="295" cy="44" r="0.9"/><circle cx="283" cy="76" r="0.9"/><circle cx="276" cy="100" r="1"/>
    <circle cx="259" cy="164" r="1"/><circle cx="232" cy="220" r="0.9"/><circle cx="200" cy="260" r="1"/>
    <circle cx="171" cy="292" r="0.9"/><circle cx="140" cy="324" r="1"/><circle cx="111" cy="356" r="0.9"/>
    <circle cx="82" cy="390" r="1"/><circle cx="56" cy="426" r="0.9"/><circle cx="33" cy="465" r="1"/>
    <circle cx="20" cy="495" r="0.9"/>
  </g>
</svg>
